<mxfile host="Electron" modified="2023-05-04T12:12:36.964Z" agent="Mozilla/5.0 (Windows NT 10.0; Win64; x64) AppleWebKit/537.36 (KHTML, like Gecko) draw.io/21.1.2 Chrome/106.0.5249.199 Electron/21.4.3 Safari/537.36" etag="TUWR4vmLDukjMXaBdx50" version="21.1.2" type="device">
  <diagram id="0vhZ1a2vEWbwYD3_x5Hq" name="第 1 页">
    <mxGraphModel dx="579" dy="334" grid="1" gridSize="10" guides="1" tooltips="1" connect="1" arrows="1" fold="1" page="1" pageScale="1" pageWidth="827" pageHeight="1169" math="1" shadow="0">
      <root>
        <mxCell id="0" />
        <mxCell id="1" parent="0" />
        <mxCell id="JJXgLaZrwcKwdhcWfyjN-42" value="" style="rounded=0;whiteSpace=wrap;html=1;dashed=1;" parent="1" vertex="1">
          <mxGeometry x="324" y="560" width="92" height="110" as="geometry" />
        </mxCell>
        <mxCell id="JJXgLaZrwcKwdhcWfyjN-21" value="" style="rounded=1;whiteSpace=wrap;html=1;" parent="1" vertex="1">
          <mxGeometry x="363" y="638" width="35" height="27" as="geometry" />
        </mxCell>
        <mxCell id="JJXgLaZrwcKwdhcWfyjN-20" value="" style="rounded=1;whiteSpace=wrap;html=1;" parent="1" vertex="1">
          <mxGeometry x="347" y="611" width="35" height="27" as="geometry" />
        </mxCell>
        <mxCell id="JJXgLaZrwcKwdhcWfyjN-11" value="" style="rounded=1;whiteSpace=wrap;html=1;" parent="1" vertex="1">
          <mxGeometry x="330" y="584" width="35" height="27" as="geometry" />
        </mxCell>
        <mxCell id="JJXgLaZrwcKwdhcWfyjN-1" value="" style="verticalLabelPosition=bottom;verticalAlign=top;html=1;shape=mxgraph.basic.rect;fillColor2=none;strokeWidth=1;size=20;indent=5;fontSize=7;fillColor=#b1ddf0;strokeColor=#10739e;" parent="1" vertex="1">
          <mxGeometry x="332" y="584.3299999999999" width="20" height="8" as="geometry" />
        </mxCell>
        <mxCell id="JJXgLaZrwcKwdhcWfyjN-2" value="" style="verticalLabelPosition=bottom;verticalAlign=top;html=1;shape=mxgraph.basic.rect;fillColor2=none;strokeWidth=1;size=20;indent=5;fontSize=7;fillColor=#b1ddf0;strokeColor=#10739e;" parent="1" vertex="1">
          <mxGeometry x="338" y="593.3299999999999" width="20" height="8" as="geometry" />
        </mxCell>
        <mxCell id="JJXgLaZrwcKwdhcWfyjN-3" value="" style="verticalLabelPosition=bottom;verticalAlign=top;html=1;shape=mxgraph.basic.rect;fillColor2=none;strokeWidth=1;size=20;indent=5;fontSize=7;fillColor=#b1ddf0;strokeColor=#10739e;" parent="1" vertex="1">
          <mxGeometry x="343" y="602.3299999999999" width="20" height="8" as="geometry" />
        </mxCell>
        <mxCell id="JJXgLaZrwcKwdhcWfyjN-4" value="&lt;font style=&quot;font-size: 8px;&quot;&gt;$$tx1$$&lt;/font&gt;" style="text;html=1;strokeColor=none;fillColor=none;align=center;verticalAlign=middle;whiteSpace=wrap;rounded=0;fontColor=#000000;" parent="1" vertex="1">
          <mxGeometry x="312.25" y="577" width="60" height="22" as="geometry" />
        </mxCell>
        <mxCell id="JJXgLaZrwcKwdhcWfyjN-12" value="" style="verticalLabelPosition=bottom;verticalAlign=top;html=1;shape=mxgraph.basic.rect;fillColor2=none;strokeWidth=1;size=20;indent=5;fontSize=7;fillColor=#b1ddf0;strokeColor=#10739e;" parent="1" vertex="1">
          <mxGeometry x="349" y="611.3299999999999" width="20" height="8" as="geometry" />
        </mxCell>
        <mxCell id="JJXgLaZrwcKwdhcWfyjN-13" value="" style="verticalLabelPosition=bottom;verticalAlign=top;html=1;shape=mxgraph.basic.rect;fillColor2=none;strokeWidth=1;size=20;indent=5;fontSize=7;fillColor=#b1ddf0;strokeColor=#10739e;" parent="1" vertex="1">
          <mxGeometry x="355" y="620.3299999999999" width="20" height="8" as="geometry" />
        </mxCell>
        <mxCell id="JJXgLaZrwcKwdhcWfyjN-14" value="" style="verticalLabelPosition=bottom;verticalAlign=top;html=1;shape=mxgraph.basic.rect;fillColor2=none;strokeWidth=1;size=20;indent=5;fontSize=7;fillColor=#b1ddf0;strokeColor=#10739e;" parent="1" vertex="1">
          <mxGeometry x="360" y="629.3299999999999" width="20" height="8" as="geometry" />
        </mxCell>
        <mxCell id="JJXgLaZrwcKwdhcWfyjN-16" value="" style="verticalLabelPosition=bottom;verticalAlign=top;html=1;shape=mxgraph.basic.rect;fillColor2=none;strokeWidth=1;size=20;indent=5;fontSize=7;fillColor=#b1ddf0;strokeColor=#10739e;" parent="1" vertex="1">
          <mxGeometry x="365" y="638.3299999999999" width="20" height="8" as="geometry" />
        </mxCell>
        <mxCell id="JJXgLaZrwcKwdhcWfyjN-17" value="" style="verticalLabelPosition=bottom;verticalAlign=top;html=1;shape=mxgraph.basic.rect;fillColor2=none;strokeWidth=1;size=20;indent=5;fontSize=7;fillColor=#b1ddf0;strokeColor=#10739e;" parent="1" vertex="1">
          <mxGeometry x="371" y="647.3299999999999" width="20" height="8" as="geometry" />
        </mxCell>
        <mxCell id="JJXgLaZrwcKwdhcWfyjN-18" value="" style="verticalLabelPosition=bottom;verticalAlign=top;html=1;shape=mxgraph.basic.rect;fillColor2=none;strokeWidth=1;size=20;indent=5;fontSize=7;fillColor=#b1ddf0;strokeColor=#10739e;" parent="1" vertex="1">
          <mxGeometry x="376" y="656.3299999999999" width="20" height="8" as="geometry" />
        </mxCell>
        <mxCell id="JJXgLaZrwcKwdhcWfyjN-22" value="&lt;font style=&quot;font-size: 8px;&quot;&gt;$$\#3$$&lt;/font&gt;" style="text;html=1;strokeColor=none;fillColor=none;align=center;verticalAlign=middle;whiteSpace=wrap;rounded=0;fontColor=#000000;" parent="1" vertex="1">
          <mxGeometry x="374.25" y="623" width="59.75" height="22" as="geometry" />
        </mxCell>
        <mxCell id="JJXgLaZrwcKwdhcWfyjN-23" value="&lt;font style=&quot;font-size: 8px;&quot;&gt;$$tx2$$&lt;/font&gt;" style="text;html=1;strokeColor=none;fillColor=none;align=center;verticalAlign=middle;whiteSpace=wrap;rounded=0;fontColor=#000000;" parent="1" vertex="1">
          <mxGeometry x="317.25" y="587" width="60" height="22" as="geometry" />
        </mxCell>
        <mxCell id="JJXgLaZrwcKwdhcWfyjN-24" value="&lt;font style=&quot;font-size: 8px;&quot;&gt;$$tx3$$&lt;/font&gt;" style="text;html=1;strokeColor=none;fillColor=none;align=center;verticalAlign=middle;whiteSpace=wrap;rounded=0;fontColor=#000000;" parent="1" vertex="1">
          <mxGeometry x="323.25" y="595" width="60" height="22" as="geometry" />
        </mxCell>
        <mxCell id="JJXgLaZrwcKwdhcWfyjN-25" value="&lt;font style=&quot;font-size: 8px;&quot;&gt;$$tx4$$&lt;/font&gt;" style="text;html=1;strokeColor=none;fillColor=none;align=center;verticalAlign=middle;whiteSpace=wrap;rounded=0;fontColor=#000000;" parent="1" vertex="1">
          <mxGeometry x="329.25" y="604" width="60" height="22" as="geometry" />
        </mxCell>
        <mxCell id="JJXgLaZrwcKwdhcWfyjN-26" value="&lt;font style=&quot;font-size: 8px;&quot;&gt;$$tx5$$&lt;/font&gt;" style="text;html=1;strokeColor=none;fillColor=none;align=center;verticalAlign=middle;whiteSpace=wrap;rounded=0;fontColor=#000000;" parent="1" vertex="1">
          <mxGeometry x="335.25" y="613" width="60" height="22" as="geometry" />
        </mxCell>
        <mxCell id="JJXgLaZrwcKwdhcWfyjN-28" value="&lt;font style=&quot;font-size: 8px;&quot;&gt;$$tx6$$&lt;/font&gt;" style="text;html=1;strokeColor=none;fillColor=none;align=center;verticalAlign=middle;whiteSpace=wrap;rounded=0;fontColor=#000000;" parent="1" vertex="1">
          <mxGeometry x="340.25" y="622" width="60" height="22" as="geometry" />
        </mxCell>
        <mxCell id="JJXgLaZrwcKwdhcWfyjN-29" value="&lt;font style=&quot;font-size: 8px;&quot;&gt;$$tx7$$&lt;/font&gt;" style="text;html=1;strokeColor=none;fillColor=none;align=center;verticalAlign=middle;whiteSpace=wrap;rounded=0;fontColor=#000000;" parent="1" vertex="1">
          <mxGeometry x="345.25" y="631" width="60" height="22" as="geometry" />
        </mxCell>
        <mxCell id="JJXgLaZrwcKwdhcWfyjN-30" value="&lt;font style=&quot;font-size: 8px;&quot;&gt;$$tx8$$&lt;/font&gt;" style="text;html=1;strokeColor=none;fillColor=none;align=center;verticalAlign=middle;whiteSpace=wrap;rounded=0;fontColor=#000000;" parent="1" vertex="1">
          <mxGeometry x="351.25" y="640" width="60" height="22" as="geometry" />
        </mxCell>
        <mxCell id="JJXgLaZrwcKwdhcWfyjN-31" value="&lt;font style=&quot;font-size: 8px;&quot;&gt;$$tx9$$&lt;/font&gt;" style="text;html=1;strokeColor=none;fillColor=none;align=center;verticalAlign=middle;whiteSpace=wrap;rounded=0;fontColor=#000000;" parent="1" vertex="1">
          <mxGeometry x="356.25" y="649" width="60" height="22" as="geometry" />
        </mxCell>
        <mxCell id="JJXgLaZrwcKwdhcWfyjN-32" value="&lt;font style=&quot;font-size: 8px;&quot;&gt;$$\#1$$&lt;/font&gt;" style="text;html=1;strokeColor=none;fillColor=none;align=center;verticalAlign=middle;whiteSpace=wrap;rounded=0;fontColor=#000000;" parent="1" vertex="1">
          <mxGeometry x="341.25" y="568" width="60" height="22" as="geometry" />
        </mxCell>
        <mxCell id="JJXgLaZrwcKwdhcWfyjN-33" value="&lt;font style=&quot;font-size: 8px;&quot;&gt;$$\#2$$&lt;/font&gt;" style="text;html=1;strokeColor=none;fillColor=none;align=center;verticalAlign=middle;whiteSpace=wrap;rounded=0;fontColor=#000000;" parent="1" vertex="1">
          <mxGeometry x="358.25" y="596" width="60" height="22" as="geometry" />
        </mxCell>
        <mxCell id="JJXgLaZrwcKwdhcWfyjN-40" value="&lt;h6 style=&quot;&quot;&gt;&lt;font size=&quot;1&quot; style=&quot;&quot;&gt;&lt;span style=&quot;font-weight: normal;&quot;&gt;BatchSize: 3&lt;/span&gt;&lt;/font&gt;&lt;/h6&gt;" style="text;html=1;strokeColor=none;fillColor=none;align=center;verticalAlign=middle;whiteSpace=wrap;rounded=0;" parent="1" vertex="1">
          <mxGeometry x="328.25" y="670" width="84.75" height="17" as="geometry" />
        </mxCell>
        <mxCell id="wejyW3TpLPZqRhK-sgEW-29" value="" style="rounded=0;whiteSpace=wrap;html=1;fillColor=#0000CC;" parent="1" vertex="1">
          <mxGeometry x="358" y="596" width="7" height="3" as="geometry" />
        </mxCell>
        <mxCell id="wejyW3TpLPZqRhK-sgEW-30" value="" style="rounded=0;whiteSpace=wrap;html=1;fillColor=#0000CC;" parent="1" vertex="1">
          <mxGeometry x="391" y="650" width="7" height="3" as="geometry" />
        </mxCell>
        <mxCell id="wejyW3TpLPZqRhK-sgEW-31" value="" style="rounded=0;whiteSpace=wrap;html=1;fillColor=#0000CC;" parent="1" vertex="1">
          <mxGeometry x="375" y="623" width="7" height="3" as="geometry" />
        </mxCell>
        <mxCell id="Fxq-wvsZDKYLinho3GOP-48" value="" style="endArrow=openAsync;html=1;rounded=0;endFill=0;startSize=3;endSize=3;jumpSize=3;" parent="1" edge="1">
          <mxGeometry width="50" height="50" relative="1" as="geometry">
            <mxPoint x="397" y="619" as="sourcePoint" />
            <mxPoint x="397" y="629" as="targetPoint" />
          </mxGeometry>
        </mxCell>
        <mxCell id="Fxq-wvsZDKYLinho3GOP-49" value="" style="endArrow=openAsync;html=1;rounded=0;endFill=0;startSize=3;endSize=3;jumpSize=3;" parent="1" edge="1">
          <mxGeometry width="50" height="50" relative="1" as="geometry">
            <mxPoint x="382.0000000000002" y="591" as="sourcePoint" />
            <mxPoint x="382.0000000000002" y="601" as="targetPoint" />
          </mxGeometry>
        </mxCell>
        <mxCell id="Fxq-wvsZDKYLinho3GOP-50" value="" style="endArrow=openAsync;html=1;rounded=0;endFill=0;startSize=3;endSize=3;jumpSize=3;" parent="1" edge="1">
          <mxGeometry width="50" height="50" relative="1" as="geometry">
            <mxPoint x="365.0000000000002" y="563" as="sourcePoint" />
            <mxPoint x="365.0000000000002" y="573" as="targetPoint" />
          </mxGeometry>
        </mxCell>
        <mxCell id="pQEBTQngrsMHYZ8hlEFF-6" value="" style="rounded=0;whiteSpace=wrap;html=1;dashed=1;" vertex="1" parent="1">
          <mxGeometry x="433" y="559" width="92" height="110" as="geometry" />
        </mxCell>
        <mxCell id="pQEBTQngrsMHYZ8hlEFF-7" value="" style="rounded=1;whiteSpace=wrap;html=1;" vertex="1" parent="1">
          <mxGeometry x="440" y="583" width="54" height="62" as="geometry" />
        </mxCell>
        <mxCell id="pQEBTQngrsMHYZ8hlEFF-8" value="" style="verticalLabelPosition=bottom;verticalAlign=top;html=1;shape=mxgraph.basic.rect;fillColor2=none;strokeWidth=1;size=20;indent=5;fontSize=7;fillColor=#b1ddf0;strokeColor=#10739e;" vertex="1" parent="1">
          <mxGeometry x="441" y="583.3299999999999" width="20" height="8" as="geometry" />
        </mxCell>
        <mxCell id="pQEBTQngrsMHYZ8hlEFF-9" value="" style="verticalLabelPosition=bottom;verticalAlign=top;html=1;shape=mxgraph.basic.rect;fillColor2=none;strokeWidth=1;size=20;indent=5;fontSize=7;fillColor=#b1ddf0;strokeColor=#10739e;" vertex="1" parent="1">
          <mxGeometry x="447" y="592.3299999999999" width="20" height="8" as="geometry" />
        </mxCell>
        <mxCell id="pQEBTQngrsMHYZ8hlEFF-10" value="" style="verticalLabelPosition=bottom;verticalAlign=top;html=1;shape=mxgraph.basic.rect;fillColor2=none;strokeWidth=1;size=20;indent=5;fontSize=7;fillColor=#b1ddf0;strokeColor=#10739e;" vertex="1" parent="1">
          <mxGeometry x="452" y="601.3299999999999" width="20" height="8" as="geometry" />
        </mxCell>
        <mxCell id="pQEBTQngrsMHYZ8hlEFF-11" value="" style="verticalLabelPosition=bottom;verticalAlign=top;html=1;shape=mxgraph.basic.rect;fillColor2=none;strokeWidth=1;size=20;indent=5;fontSize=7;fillColor=#b1ddf0;strokeColor=#10739e;" vertex="1" parent="1">
          <mxGeometry x="458" y="610.3299999999999" width="20" height="8" as="geometry" />
        </mxCell>
        <mxCell id="pQEBTQngrsMHYZ8hlEFF-12" value="" style="verticalLabelPosition=bottom;verticalAlign=top;html=1;shape=mxgraph.basic.rect;fillColor2=none;strokeWidth=1;size=20;indent=5;fontSize=7;fillColor=#b1ddf0;strokeColor=#10739e;" vertex="1" parent="1">
          <mxGeometry x="464" y="619.3299999999999" width="20" height="8" as="geometry" />
        </mxCell>
        <mxCell id="pQEBTQngrsMHYZ8hlEFF-13" value="" style="verticalLabelPosition=bottom;verticalAlign=top;html=1;shape=mxgraph.basic.rect;fillColor2=none;strokeWidth=1;size=20;indent=5;fontSize=7;fillColor=#b1ddf0;strokeColor=#10739e;" vertex="1" parent="1">
          <mxGeometry x="469" y="628.3299999999999" width="20" height="8" as="geometry" />
        </mxCell>
        <mxCell id="pQEBTQngrsMHYZ8hlEFF-14" value="" style="verticalLabelPosition=bottom;verticalAlign=top;html=1;shape=mxgraph.basic.rect;fillColor2=none;strokeWidth=1;size=20;indent=5;fontSize=7;fillColor=#b1ddf0;strokeColor=#10739e;" vertex="1" parent="1">
          <mxGeometry x="474" y="637.3299999999999" width="20" height="8" as="geometry" />
        </mxCell>
        <mxCell id="pQEBTQngrsMHYZ8hlEFF-15" value="" style="verticalLabelPosition=bottom;verticalAlign=top;html=1;shape=mxgraph.basic.rect;fillColor2=none;strokeWidth=1;size=20;indent=5;fontSize=7;fillColor=#b1ddf0;strokeColor=#10739e;" vertex="1" parent="1">
          <mxGeometry x="480" y="646.3299999999999" width="20" height="8" as="geometry" />
        </mxCell>
        <mxCell id="pQEBTQngrsMHYZ8hlEFF-16" value="" style="verticalLabelPosition=bottom;verticalAlign=top;html=1;shape=mxgraph.basic.rect;fillColor2=none;strokeWidth=1;size=20;indent=5;fontSize=7;fillColor=#b1ddf0;strokeColor=#10739e;" vertex="1" parent="1">
          <mxGeometry x="485" y="655.3299999999999" width="20" height="8" as="geometry" />
        </mxCell>
        <mxCell id="pQEBTQngrsMHYZ8hlEFF-17" value="&lt;font style=&quot;font-size: 8px;&quot;&gt;$$tx3$$&lt;/font&gt;" style="text;html=1;strokeColor=none;fillColor=none;align=center;verticalAlign=middle;whiteSpace=wrap;rounded=0;fontColor=#000000;" vertex="1" parent="1">
          <mxGeometry x="432.25" y="595" width="60" height="22" as="geometry" />
        </mxCell>
        <mxCell id="pQEBTQngrsMHYZ8hlEFF-18" value="&lt;font style=&quot;font-size: 8px;&quot;&gt;$$tx4$$&lt;/font&gt;" style="text;html=1;strokeColor=none;fillColor=none;align=center;verticalAlign=middle;whiteSpace=wrap;rounded=0;fontColor=#000000;" vertex="1" parent="1">
          <mxGeometry x="438.25" y="603" width="60" height="22" as="geometry" />
        </mxCell>
        <mxCell id="pQEBTQngrsMHYZ8hlEFF-19" value="&lt;font style=&quot;font-size: 8px;&quot;&gt;$$tx5$$&lt;/font&gt;" style="text;html=1;strokeColor=none;fillColor=none;align=center;verticalAlign=middle;whiteSpace=wrap;rounded=0;fontColor=#000000;" vertex="1" parent="1">
          <mxGeometry x="445.25" y="612" width="60" height="22" as="geometry" />
        </mxCell>
        <mxCell id="pQEBTQngrsMHYZ8hlEFF-20" value="&lt;font style=&quot;font-size: 8px;&quot;&gt;$$tx6$$&lt;/font&gt;" style="text;html=1;strokeColor=none;fillColor=none;align=center;verticalAlign=middle;whiteSpace=wrap;rounded=0;fontColor=#000000;" vertex="1" parent="1">
          <mxGeometry x="450.25" y="621" width="60" height="22" as="geometry" />
        </mxCell>
        <mxCell id="pQEBTQngrsMHYZ8hlEFF-21" value="&lt;font style=&quot;font-size: 8px;&quot;&gt;$$tx7$$&lt;/font&gt;" style="text;html=1;strokeColor=none;fillColor=none;align=center;verticalAlign=middle;whiteSpace=wrap;rounded=0;fontColor=#000000;" vertex="1" parent="1">
          <mxGeometry x="455.25" y="630" width="60" height="22" as="geometry" />
        </mxCell>
        <mxCell id="pQEBTQngrsMHYZ8hlEFF-22" value="&lt;font style=&quot;font-size: 8px;&quot;&gt;$$tx8$$&lt;/font&gt;" style="text;html=1;strokeColor=none;fillColor=none;align=center;verticalAlign=middle;whiteSpace=wrap;rounded=0;fontColor=#000000;" vertex="1" parent="1">
          <mxGeometry x="461.25" y="639" width="60" height="22" as="geometry" />
        </mxCell>
        <mxCell id="pQEBTQngrsMHYZ8hlEFF-23" value="&lt;font style=&quot;font-size: 8px;&quot;&gt;$$tx9$$&lt;/font&gt;" style="text;html=1;strokeColor=none;fillColor=none;align=center;verticalAlign=middle;whiteSpace=wrap;rounded=0;fontColor=#000000;" vertex="1" parent="1">
          <mxGeometry x="466.25" y="648" width="60" height="22" as="geometry" />
        </mxCell>
        <mxCell id="pQEBTQngrsMHYZ8hlEFF-24" value="&lt;font style=&quot;font-size: 8px;&quot;&gt;$$\#1$$&lt;/font&gt;" style="text;html=1;strokeColor=none;fillColor=none;align=center;verticalAlign=middle;whiteSpace=wrap;rounded=0;fontColor=#000000;" vertex="1" parent="1">
          <mxGeometry x="470.25" y="567" width="60" height="22" as="geometry" />
        </mxCell>
        <mxCell id="pQEBTQngrsMHYZ8hlEFF-25" value="&lt;h6 style=&quot;&quot;&gt;&lt;font size=&quot;1&quot; style=&quot;&quot;&gt;&lt;span style=&quot;font-weight: normal;&quot;&gt;BatchSize: 7&lt;/span&gt;&lt;/font&gt;&lt;/h6&gt;" style="text;html=1;strokeColor=none;fillColor=none;align=center;verticalAlign=middle;whiteSpace=wrap;rounded=0;" vertex="1" parent="1">
          <mxGeometry x="436.25" y="670" width="84.75" height="18" as="geometry" />
        </mxCell>
        <mxCell id="pQEBTQngrsMHYZ8hlEFF-26" value="" style="rounded=0;whiteSpace=wrap;html=1;fillColor=#0000CC;" vertex="1" parent="1">
          <mxGeometry x="467" y="595" width="26" height="3" as="geometry" />
        </mxCell>
        <mxCell id="pQEBTQngrsMHYZ8hlEFF-27" value="&lt;font style=&quot;font-size: 8px;&quot;&gt;$$tx2$$&lt;/font&gt;" style="text;html=1;strokeColor=none;fillColor=none;align=center;verticalAlign=middle;whiteSpace=wrap;rounded=0;fontColor=#000000;" vertex="1" parent="1">
          <mxGeometry x="428.25" y="586" width="60" height="22" as="geometry" />
        </mxCell>
        <mxCell id="pQEBTQngrsMHYZ8hlEFF-28" value="&lt;font style=&quot;font-size: 8px;&quot;&gt;$$tx1$$&lt;/font&gt;" style="text;html=1;strokeColor=none;fillColor=none;align=center;verticalAlign=middle;whiteSpace=wrap;rounded=0;fontColor=#000000;" vertex="1" parent="1">
          <mxGeometry x="422.25" y="576" width="60" height="22" as="geometry" />
        </mxCell>
        <mxCell id="pQEBTQngrsMHYZ8hlEFF-29" value="" style="endArrow=openAsync;html=1;rounded=0;endFill=0;startSize=3;endSize=3;jumpSize=3;" edge="1" parent="1">
          <mxGeometry width="50" height="50" relative="1" as="geometry">
            <mxPoint x="494" y="562" as="sourcePoint" />
            <mxPoint x="494" y="572" as="targetPoint" />
          </mxGeometry>
        </mxCell>
      </root>
    </mxGraphModel>
  </diagram>
</mxfile>
